<?xml version="1.0" encoding="UTF-8"?>
<svg width="56px" height="56px" viewBox="0 0 56 56" version="1.1" xmlns="http://www.w3.org/2000/svg" xmlns:xlink="http://www.w3.org/1999/xlink">
    <title>76145AF5-CB94-4C60-9A32-CE7EC499AB41@3x</title>
    <defs>
        <linearGradient x1="50%" y1="0%" x2="50%" y2="100%" id="linearGradient-1">
            <stop stop-color="#E03E52" offset="0%"></stop>
            <stop stop-color="#620469" offset="100%"></stop>
        </linearGradient>
    </defs>
    <g id="Mi-Salud---Salud-Mental_v2" stroke="none" stroke-width="1" fill="none" fill-rule="evenodd">
        <g id="02_MS_Salud_Mental_Mensaje" transform="translate(-160.000000, -216.000000)">
            <g id="estado_mecional_generico" transform="translate(160.000000, 216.000000)">
                <circle id="Oval" fill="url(#linearGradient-1)" cx="28" cy="28" r="28"></circle>
                <g id="icon-/-normal" transform="translate(12.000000, 12.000000)" fill="#FFFFFF" fill-rule="nonzero">
                    <g id="sad-face">
                        <path d="M16,32 C7.17766667,32 0,24.8223333 0,16 C0,7.17766667 7.17766667,0 16,0 C24.8223333,0 32,7.17766667 32,16 C32,24.8223333 24.8223333,32 16,32 Z M16,2 C8.28033333,2 2,8.28033333 2,16 C2,23.7196667 8.28033333,30 16,30 C23.7196667,30 30,23.7196667 30,16 C30,8.28033333 23.7196667,2 16,2 Z M23.4473333,22.8946667 C23.9413333,22.6476667 24.1416667,22.047 23.8946667,21.553 C23.8013333,21.3666667 21.5543333,17 16,17 C10.4456667,17 8.19866667,21.3666667 8.10533333,21.5526667 C7.85933333,22.045 8.05833333,22.6416667 8.54933333,22.89 C9.04166667,23.1376667 9.641,22.9413333 9.892,22.4516667 C9.96433333,22.3106667 11.71,19 16,19 C20.29,19 22.0356667,22.3106667 22.1053333,22.4473333 C22.2806667,22.798 22.6336667,23.0006667 23.001,23 C23.151,23 23.3036667,22.9663333 23.4473333,22.8946667 L23.4473333,22.8946667 Z M21,14 C19.897,14 19,13.103 19,12 C19,10.897 19.897,10 21,10 C22.103,10 23,10.897 23,12 C23,13.103 22.103,14 21,14 Z M11,14 C9.897,14 9,13.103 9,12 C9,10.897 9.897,10 11,10 C12.103,10 13,10.897 13,12 C13,13.103 12.103,14 11,14 Z" id="Sad"></path>
                    </g>
                </g>
            </g>
        </g>
    </g>
</svg>