<?xml version="1.0" encoding="UTF-8"?>
<svg width="40px" height="40px" viewBox="0 0 40 40" version="1.1" xmlns="http://www.w3.org/2000/svg" xmlns:xlink="http://www.w3.org/1999/xlink">
    <title>BED3BDB9-4F0E-4472-97EA-FC1F3DA9E2AF@3x</title>
    <g id="Mi-Salud---Nutrición_v2" stroke="none" stroke-width="1" fill="none" fill-rule="evenodd">
        <g id="02_MS_Nutrición_Mensaje" transform="translate(-168.000000, -424.000000)">
            <g id="icon_nutrición" transform="translate(168.000000, 424.000000)">
                <circle id="Oval" fill="#00A6A0" cx="20" cy="20" r="20"></circle>
                <g id="icon-/-bascula" transform="translate(8.000000, 8.000000)" fill="#FFFFFF" fill-rule="nonzero">
                    <g id="bascula" transform="translate(0.596280, 0.000000)">
                        <path d="M11.2018768,2.96724541 C11.2018298,2.96724541 11.2018298,2.96724541 11.2018768,2.96724541 C8.17772605,2.96724541 5.34044259,4.31428599 3.21259737,6.76022811 C2.9820182,7.02526973 2.9820182,7.41966293 3.21259737,7.68470455 L7.05009016,12.0958047 C7.18385518,12.2495711 7.37767127,12.33784 7.58144109,12.33784 L14.8223594,12.33784 C15.0261762,12.33784 15.2199453,12.2495711 15.3537103,12.0958047 L19.1912031,7.68470455 C19.4217823,7.41966293 19.4217823,7.02522278 19.1912031,6.76018115 C17.0633109,4.31428599 14.2259336,2.96724541 11.2018768,2.96724541 L11.2018768,2.96724541 Z M10.7880456,10.9292929 L11.2018298,10.0329874 L11.615614,10.9292929 L10.7880456,10.9292929 Z M14.5015393,10.9292929 L13.1670817,10.9292929 L11.8412633,8.05759393 C11.726138,7.80823413 11.4765435,7.64855184 11.2018298,7.64855184 C10.9271631,7.64855184 10.6775216,7.80823413 10.5623964,8.05759393 L9.23662484,10.9292929 L7.90216728,10.9292929 L4.68866087,7.23547191 C5.09014376,6.82323712 5.51613537,6.45297702 5.96245701,6.12600628 L6.5687896,6.85333307 C6.70809491,7.02043372 6.90834336,7.1066368 7.11009427,7.1066368 C7.26911924,7.1066368 7.42903629,7.05306506 7.5606885,6.94329228 C7.85944135,6.6942142 7.89972579,6.25014623 7.65069466,5.95139339 L7.1693002,5.37393601 C8.2122824,4.82962644 9.33541094,4.49979165 10.4975562,4.40480862 L10.4975562,5.27219195 C10.4975562,5.66113877 10.812883,5.97646552 11.2018298,5.97646552 C11.5907766,5.97646552 11.9061034,5.66113877 11.9061034,5.27219195 L11.9061034,4.40480862 C13.0682487,4.49979165 14.1913772,4.82962644 15.2343594,5.37393601 L14.752965,5.95139339 C14.5038869,6.25014623 14.5442183,6.69426115 14.8429242,6.94329228 C14.9746703,7.05306506 15.1345404,7.1066368 15.2935654,7.1066368 C15.4953163,7.1066368 15.6955647,7.02038676 15.83487,6.85333307 L16.4412026,6.12600628 C16.8874773,6.45297702 17.3135159,6.82323712 17.7149518,7.23547191 L14.5015393,10.9292929 Z" id="Shape"></path>
                        <path d="M21.0790788,1.70171275 C20.1041295,0.620230258 18.7099495,0 17.2539343,0 L5.14977226,0 C3.69380403,0 2.29962407,0.620230258 1.32472164,1.7016658 C0.349819208,2.78310135 -0.122983117,4.23395186 0.0274497182,5.68217308 L1.45111527,19.3824069 C1.72465512,22.0148406 3.92677772,24 6.5734378,24 L15.8303157,24 C18.4769288,24 20.6790515,22.0148876 20.9526383,19.3824069 L22.3762569,5.68222003 C22.5267366,4.23399881 22.0538874,2.7831483 21.0790788,1.70171275 Z M20.975222,5.53657625 L19.5516034,19.23681 C19.3529043,21.1492414 17.7530295,22.5914529 15.8303157,22.5914529 L11.9061503,22.5914529 L11.9061503,18.3672669 C11.9061503,17.9783201 11.5908236,17.6629934 11.2018768,17.6629934 C10.8129299,17.6629934 10.4976032,17.9783201 10.4976032,18.3672669 L10.4976032,22.5914529 L6.5734378,22.5914529 C4.65067705,22.5914529 3.05084921,21.1492884 2.85210321,19.23681 L1.42848461,5.53657625 C1.3191344,4.48443849 1.6626321,3.43046961 2.37089655,2.64478202 C3.07916101,1.85914137 4.0920003,1.40854714 5.14977226,1.40854714 L17.2539343,1.40854714 C18.3117063,1.40854714 19.3245925,1.85914137 20.032857,2.64482897 C20.7411214,3.43046961 21.0845722,4.48448544 20.975222,5.53657625 Z" id="Shape"></path>
                    </g>
                </g>
            </g>
        </g>
    </g>
</svg>