<?xml version="1.0" encoding="UTF-8"?>
<svg width="40px" height="40px" viewBox="0 0 40 40" version="1.1" xmlns="http://www.w3.org/2000/svg" xmlns:xlink="http://www.w3.org/1999/xlink">
    <title>BED3BDB9-4F0E-4472-97EA-FC1F3DA9E2AF@3x</title>
    <g id="Mi-Salud---Salud-Mental_v2" stroke="none" stroke-width="1" fill="none" fill-rule="evenodd">
        <g id="02_MS_Salud_Mental_Mensaje" transform="translate(-168.000000, -392.000000)">
            <g id="icon_brain" transform="translate(168.000000, 392.000000)">
                <circle id="Oval" fill="#00A6A0" cx="20" cy="20" r="20"></circle>
                <g id="icon-/-brain" transform="translate(8.000000, 8.000000)" fill="#FFFFFF" fill-rule="nonzero">
                    <g id="brain" transform="translate(1.000000, 1.000000)">
                        <path d="M20.6770214,6.86738897 C21.1151687,4.6461855 19.5797028,2.55762506 17.4378616,2.32135049 C16.3184796,-0.391357489 12.7052388,-0.846775617 11.0007213,1.59544025 C9.29689729,-0.845841198 5.68352646,-0.392647877 4.5635809,2.32135049 C2.42043934,2.55780305 0.886577294,4.64769837 1.32442109,6.86738897 C-0.27199007,8.24062925 -0.437010496,10.6880067 0.905172976,12.274962 C-1.31850653,15.3489787 0.795029319,19.8294299 4.63120156,19.8294299 C5.85617588,22.4526561 9.35350792,22.7637287 11.0006779,20.4036972 C12.6491917,22.7656865 16.1463937,22.4501198 17.3701543,19.8294299 C21.1967469,19.8381511 23.3204692,15.3498241 21.0961829,12.274962 C22.4401435,10.6860043 22.2714387,8.2389384 20.6770214,6.86738897 Z M7.89381187,20.5542277 C5.95574298,20.5542277 4.83744458,18.2167113 6.10030382,16.6479994 C6.34434506,16.3448916 6.30277569,15.8961924 6.00749879,15.6456791 C5.7122219,15.3952547 5.27511499,15.4379265 5.0311171,15.7409898 C4.44801892,16.4652537 4.13765741,17.4031881 4.18668239,18.3640381 C1.55693214,18.0771269 0.38562088,14.8495094 2.12403543,12.8597304 C2.14306458,12.8818005 2.79508382,11.9249997 4.18624893,11.7729119 C4.16336193,12.23407 4.2220532,12.7003007 4.36600719,13.1523371 C4.46162974,13.4525972 4.73319606,13.6432187 5.02509192,13.6432187 C5.49501219,13.6432187 5.83129495,13.170981 5.68443674,12.7098674 C5.28608168,11.458858 5.95340226,10.1083553 7.17209133,9.69943563 C7.53615925,9.5772492 7.73481662,9.17527095 7.61578691,8.80150326 C7.49675721,8.42773557 7.10529425,8.22367622 6.74105295,8.34604064 C6.58231778,8.39930253 6.42908762,8.46355498 6.28105905,8.53652867 C6.00472461,7.81017346 6.19536286,6.95215414 6.81149114,6.42807845 C7.10642126,6.17716464 7.14738378,5.72837644 6.90299577,5.42562462 C6.65860775,5.12287279 6.22137081,5.08086842 5.92644069,5.33169324 C4.72526364,6.3534584 4.44732537,8.07100991 5.14563876,9.40625048 C4.67784248,9.93677811 4.56921595,10.3300796 4.53011734,10.3300796 C3.51216628,10.3300796 2.57024512,10.6702527 1.80621831,11.2454545 C0.955064889,10.151561 1.19750231,8.50302307 2.3987227,7.73404055 C2.67544726,7.55690136 2.79456366,7.20578222 2.68485347,6.89048247 C2.17535778,5.42589159 3.13635144,3.70326752 4.9759369,3.70326752 C5.28946271,3.70326752 5.56540703,3.48661575 5.64616171,3.17362981 C5.91564739,2.12912711 6.83988315,1.39965717 7.89376852,1.39965717 C9.17591698,1.39965717 10.2190524,2.4704126 10.2190524,3.78660881 L10.2190524,18.1672761 C10.2190524,19.4834723 9.17596033,20.5542277 7.89381187,20.5542277 L7.89381187,20.5542277 Z M20.0188903,11.245499 C19.1917076,10.6227753 18.188581,10.313438 17.2815539,10.3307915 C17.1244225,9.99262079 16.9304032,9.69080338 16.6795132,9.40625048 C17.3772631,8.07207782 17.1009287,6.35434832 15.8987113,5.33169324 C15.6036511,5.08082392 15.1665009,5.12287279 14.9221562,5.42562462 C14.6777682,5.72842094 14.7187741,6.17720914 15.0136609,6.42807845 C15.6297891,6.95210965 15.8204707,7.81017346 15.5440929,8.53652867 C15.396021,8.46355498 15.2428342,8.39930253 15.084099,8.34604064 C14.7199878,8.22376521 14.3283948,8.42778007 14.2093651,8.80150326 C14.0903354,9.17522645 14.2889928,9.5772492 14.6530607,9.69943563 C15.8717497,10.1083553 16.5391137,11.458858 16.1407153,12.7098674 C16.0216856,13.0835906 16.2203429,13.4856133 16.5844108,13.6077997 C16.9464848,13.7293187 17.3395082,13.5279736 17.4591448,13.1523371 C17.6030988,12.7002562 17.6618334,12.2340255 17.6389031,11.7728674 C19.2685611,11.9510745 20.5239333,13.373572 20.5239333,15.068386 C20.5239333,16.7769048 19.2579411,18.1873438 17.6384696,18.3639491 C17.6874512,17.4068368 17.3794304,16.4679235 16.7940782,15.7409008 C16.5501237,15.4377485 16.1129301,15.3951657 15.8176966,15.6455901 C15.5224197,15.8961034 15.4808503,16.3448471 15.7248915,16.6479104 C16.9854534,18.2137745 15.870406,20.5541387 13.9313835,20.5541387 C12.649235,20.5541387 11.6060996,19.4833833 11.6060996,18.1671871 L11.6060996,3.78660881 C11.6060996,2.4704571 12.6491917,1.39965717 13.9313835,1.39965717 C14.9852688,1.39965717 15.9095046,2.1291716 16.1789903,3.17362981 C16.2617389,3.49426909 16.5480864,3.71452505 16.8721888,3.70291155 C18.4966885,3.64159585 19.6940511,5.29872159 19.1402985,6.89052697 C19.0305883,7.20582671 19.1497047,7.55694586 19.4264293,7.73408504 C20.6288634,8.503824 20.8690901,10.1528959 20.0188903,11.245499 L20.0188903,11.245499 Z" id="Shape"></path>
                    </g>
                </g>
            </g>
        </g>
    </g>
</svg>